<svg version="1.1" id="Layer_1" xmlns="http://www.w3.org/2000/svg" xmlns:xlink="http://www.w3.org/1999/xlink" x="0px" y="0px"
	 width="100%" viewBox="0 0 400 592" enable-background="new 0 0 400 592" xml:space="preserve">
<path fill="#000000" opacity="1.000000" stroke="none" 
	d="
M321.407074,285.458374 
	C324.694824,283.682800 326.781799,280.537445 330.285522,279.851501 
	C332.129181,282.560150 330.555756,283.986481 329.037109,285.299072 
	C325.177948,288.634705 320.665680,290.732941 315.707642,291.796265 
	C311.072479,292.790405 309.092682,290.560699 310.412659,285.936646 
	C310.946106,284.067841 311.640869,282.245117 312.345184,280.155212 
	C306.411743,282.937805 304.664429,290.443604 297.508331,292.093445 
	C296.921021,286.323212 301.857727,283.132538 302.434601,277.482574 
	C296.585144,281.832916 291.209015,285.496582 287.183014,290.798401 
	C286.092255,292.234802 284.662384,293.130249 282.854980,292.395081 
	C280.857544,291.582611 282.327362,289.779419 281.958466,288.235779 
	C276.349670,289.906830 271.018494,293.493164 264.793457,290.535065 
	C264.032532,290.173492 262.567169,290.973419 261.564789,291.496613 
	C257.324432,293.709778 253.316879,294.969269 250.857849,289.157196 
	C246.662888,291.213898 243.133652,293.572693 238.732224,293.322296 
	C234.485092,293.080688 232.819199,291.037689 233.395615,286.809875 
	C233.840225,283.548706 235.700653,280.920898 237.226318,278.187927 
	C242.106537,269.445831 247.692322,261.161285 254.667984,253.938583 
	C256.675354,251.860123 259.581787,248.740341 262.217102,250.415970 
	C265.302002,252.377472 263.279480,256.158936 262.107300,259.044922 
	C258.162720,268.756958 251.785309,276.373413 242.762970,281.862976 
	C240.419708,283.288727 236.076752,285.074524 237.940414,288.217255 
	C239.815506,291.379211 243.425430,288.415314 245.687546,286.931519 
	C252.071991,282.743713 258.198822,278.162170 264.411072,273.713287 
	C267.034729,271.834381 269.980530,270.757141 273.088135,270.034760 
	C274.525299,269.700714 275.750092,269.999939 276.613373,271.238525 
	C277.450500,272.439636 277.678436,273.984375 276.761993,274.985016 
	C273.577393,278.462158 274.257507,283.996521 268.768707,287.352509 
	C274.910187,287.140198 278.610779,284.669556 282.573853,282.670105 
	C287.096130,280.388489 288.443176,276.835907 288.501465,272.126740 
	C288.523407,270.352692 289.882172,268.802856 292.042023,267.984650 
	C296.402740,271.630402 290.994385,275.224487 292.257141,279.324432 
	C295.059540,277.569946 297.805267,275.650208 300.731842,274.064056 
	C305.571808,271.440948 306.623047,272.009521 307.623291,277.673340 
	C311.515228,275.983459 313.884613,271.668610 318.849182,271.286072 
	C321.220612,277.553619 314.846161,281.588074 314.842316,287.113190 
	C317.401337,287.951813 319.094208,286.168274 321.407074,285.458374 
M248.447540,272.927917 
	C253.231354,267.831573 258.177917,262.833984 259.714478,254.201111 
	C252.411682,261.715790 247.224091,269.172913 241.444397,278.053131 
	C244.440689,275.901886 246.185379,274.649261 248.447540,272.927917 
M260.364136,281.841217 
	C259.272858,283.997986 256.177551,285.143402 256.775146,288.719238 
	C265.318665,287.576202 267.050873,279.400543 272.511688,275.451019 
	C267.474030,275.473083 264.101929,278.319305 260.364136,281.841217 
z"/>
<path fill="#000000" opacity="1.000000" stroke="none" 
	d="
M203.794617,295.771454 
	C206.269699,293.779572 208.495834,292.042938 210.711319,290.292847 
	C212.910110,288.555939 215.098190,286.805450 217.117249,284.751770 
	C212.288132,286.900146 207.795181,289.737946 202.486008,290.577942 
	C196.225403,291.568481 193.686844,288.926727 194.960754,282.743835 
	C196.617020,274.705261 201.920471,269.178955 208.074661,264.544983 
	C214.510483,259.698975 221.991287,256.761292 229.869370,255.036362 
	C232.609055,254.436508 235.706833,253.803741 237.594070,256.729309 
	C239.359512,259.466125 237.354584,261.625122 236.061417,263.986603 
	C232.964981,269.641022 227.879974,273.945862 224.993317,280.077911 
	C228.550827,280.298553 230.386658,276.093567 233.812515,277.386414 
	C234.854126,279.143890 233.911346,280.148529 232.557526,280.580444 
	C221.173233,284.212189 216.607544,293.762665 212.112045,303.566925 
	C208.294586,311.892487 202.930359,319.355072 197.999496,327.044189 
	C196.096756,330.011353 193.719574,332.635773 190.282486,333.878540 
	C186.571228,335.220459 184.141144,333.553253 183.651535,329.652649 
	C182.898315,323.651764 185.303329,318.525116 188.258133,313.673553 
	C192.347992,306.958313 197.596619,301.169678 203.794617,295.771454 
M228.821060,263.551086 
	C229.509308,262.124817 230.945648,261.058777 230.983887,258.991150 
	C228.751907,259.485443 226.600922,259.747284 224.599533,260.440765 
	C213.917068,264.142365 204.703613,269.773285 199.641663,280.457794 
	C198.837448,282.155273 197.284653,284.307861 199.048752,286.005981 
	C200.805908,287.697418 203.121582,286.634430 205.156006,285.875183 
	C215.925827,281.855865 224.260025,275.220825 228.821060,263.551086 
M188.301239,319.878387 
	C187.792175,323.310181 184.544922,326.727295 188.850082,331.228302 
	C199.597519,319.942688 206.017563,306.505310 212.825836,293.329437 
	C201.991104,299.520752 194.417816,308.565155 188.301239,319.878387 
z"/>
<path fill="#000000" opacity="1.000000" stroke="none" 
	d="
M171.073975,286.023804 
	C172.827637,285.722321 174.252731,284.580200 175.624664,285.957611 
	C172.587875,294.067230 159.562424,295.178375 153.225601,287.727417 
	C149.593781,288.518250 146.442413,291.397369 142.592896,291.290527 
	C137.274734,291.142914 132.182816,290.692169 126.955513,292.986511 
	C123.657158,294.434235 121.133102,290.868988 122.247803,287.155304 
	C124.226288,280.563904 136.799393,270.452759 143.688889,269.912598 
	C146.806183,269.668152 148.794952,272.547211 146.834015,275.218170 
	C144.097397,278.945679 144.575302,284.335815 138.573196,287.154633 
	C148.928558,287.094604 156.160599,281.573639 158.832825,272.941589 
	C156.365967,272.513885 153.594254,274.545807 151.079300,271.838806 
	C152.553741,269.356323 155.251175,269.028778 157.441315,269.051300 
	C162.315598,269.101410 165.056976,266.460449 167.313797,262.716370 
	C167.910690,261.726105 168.682129,260.831696 169.440079,259.950562 
	C170.130692,259.147705 171.041321,258.613892 172.064453,259.238129 
	C173.291641,259.986877 173.133636,261.108673 172.674713,262.305115 
	C172.037155,263.967285 170.158371,265.033813 170.382034,267.653748 
	C173.612732,267.653748 176.876709,267.426056 180.093384,267.718506 
	C183.233337,268.004059 186.553085,265.698273 190.117783,268.438599 
	C186.383331,271.333649 182.128540,269.881989 178.522888,271.072083 
	C177.157288,271.522858 175.550278,271.245087 174.053131,271.294159 
	C166.699448,271.535217 160.539459,276.343506 158.652939,283.433167 
	C157.734024,286.886475 158.772873,288.953125 162.757767,288.860718 
	C165.723465,288.791931 168.170273,287.367981 171.073975,286.023804 
M134.690338,278.199280 
	C131.017273,280.894196 127.916138,284.023285 125.907265,288.958008 
	C135.452591,288.254608 137.051468,279.596039 142.640945,275.506012 
	C139.533478,274.789948 137.457504,276.448517 134.690338,278.199280 
z"/>
<path fill="#000000" opacity="1.000000" stroke="none" 
	d="
M101.243790,262.244324 
	C106.824272,257.918701 109.868462,251.004517 117.409668,249.466934 
	C114.638237,255.323303 109.373657,259.094330 104.632408,264.647766 
	C115.030640,261.486786 122.550331,253.906479 132.807785,252.911850 
	C123.620560,259.836121 113.609367,265.172363 102.463676,270.180084 
	C106.109695,272.895325 109.170868,275.350342 112.408569,277.544922 
	C117.223732,280.808807 118.757378,285.444702 118.463829,290.947144 
	C118.371094,292.685425 118.102341,294.350281 115.751411,294.182770 
	C115.458679,293.922272 114.995491,293.690460 115.011429,293.498444 
	C116.002594,281.555664 106.185204,278.272827 98.699768,273.153442 
	C96.789444,271.846954 95.527283,273.355713 94.486259,274.605042 
	C90.346100,279.573517 85.659668,284.138000 82.858002,290.117981 
	C82.237297,291.442841 81.559158,293.312164 79.661880,292.142273 
	C77.983711,291.107483 78.972580,289.503387 79.677429,288.162720 
	C82.810722,282.203064 87.173340,277.166992 91.698753,272.265076 
	C94.748680,268.961456 97.893181,265.745117 101.243790,262.244324 
z"/>
</svg>